<mxfile host="Electron" modified="2023-10-05T12:59:53.652Z" agent="Mozilla/5.0 (Macintosh; Intel Mac OS X 10_15_7) AppleWebKit/537.36 (KHTML, like Gecko) draw.io/22.0.2 Chrome/114.0.5735.289 Electron/25.8.4 Safari/537.36" etag="IGZNUcMa9gSFjCq9Lpmg" version="22.0.2" type="device">
  <diagram id="C5RBs43oDa-KdzZeNtuy" name="Page-1">
    <mxGraphModel dx="636" dy="449" grid="1" gridSize="10" guides="1" tooltips="1" connect="1" arrows="1" fold="1" page="1" pageScale="1" pageWidth="827" pageHeight="1169" math="0" shadow="0">
      <root>
        <mxCell id="WIyWlLk6GJQsqaUBKTNV-0" />
        <mxCell id="WIyWlLk6GJQsqaUBKTNV-1" parent="WIyWlLk6GJQsqaUBKTNV-0" />
        <mxCell id="WIyWlLk6GJQsqaUBKTNV-2" value="" style="rounded=0;html=1;jettySize=auto;orthogonalLoop=1;fontSize=11;endArrow=block;endFill=0;endSize=8;strokeWidth=1;shadow=0;labelBackgroundColor=none;edgeStyle=orthogonalEdgeStyle;" parent="WIyWlLk6GJQsqaUBKTNV-1" source="WIyWlLk6GJQsqaUBKTNV-3" target="WIyWlLk6GJQsqaUBKTNV-6" edge="1">
          <mxGeometry relative="1" as="geometry" />
        </mxCell>
        <mxCell id="WIyWlLk6GJQsqaUBKTNV-3" value="START" style="rounded=1;whiteSpace=wrap;html=1;fontSize=12;glass=0;strokeWidth=1;shadow=0;" parent="WIyWlLk6GJQsqaUBKTNV-1" vertex="1">
          <mxGeometry x="214.37" y="10" width="120" height="40" as="geometry" />
        </mxCell>
        <mxCell id="WIyWlLk6GJQsqaUBKTNV-4" value="Yes" style="rounded=0;html=1;jettySize=auto;orthogonalLoop=1;fontSize=11;endArrow=block;endFill=0;endSize=8;strokeWidth=1;shadow=0;labelBackgroundColor=none;edgeStyle=orthogonalEdgeStyle;" parent="WIyWlLk6GJQsqaUBKTNV-1" source="WIyWlLk6GJQsqaUBKTNV-6" edge="1">
          <mxGeometry y="20" relative="1" as="geometry">
            <mxPoint as="offset" />
            <mxPoint x="274.3750000000001" y="310.0018181818182" as="targetPoint" />
          </mxGeometry>
        </mxCell>
        <mxCell id="WIyWlLk6GJQsqaUBKTNV-5" value="No" style="edgeStyle=orthogonalEdgeStyle;rounded=0;html=1;jettySize=auto;orthogonalLoop=1;fontSize=11;endArrow=block;endFill=0;endSize=8;strokeWidth=1;shadow=0;labelBackgroundColor=none;" parent="WIyWlLk6GJQsqaUBKTNV-1" source="WIyWlLk6GJQsqaUBKTNV-6" target="WIyWlLk6GJQsqaUBKTNV-7" edge="1">
          <mxGeometry y="10" relative="1" as="geometry">
            <mxPoint as="offset" />
          </mxGeometry>
        </mxCell>
        <mxCell id="WIyWlLk6GJQsqaUBKTNV-6" value="&lt;div style=&quot;&quot;&gt;&lt;span style=&quot;background-color: initial;&quot;&gt;R1 have Index in sequence description?&lt;/span&gt;&lt;/div&gt;" style="rhombus;whiteSpace=wrap;html=1;shadow=0;fontFamily=Helvetica;fontSize=12;align=center;strokeWidth=1;spacing=13;spacingTop=-4;spacingLeft=11;spacingRight=9;" parent="WIyWlLk6GJQsqaUBKTNV-1" vertex="1">
          <mxGeometry x="160" y="110" width="228.75" height="100" as="geometry" />
        </mxCell>
        <mxCell id="WIyWlLk6GJQsqaUBKTNV-7" value="Write cycles&lt;br&gt;R1 I1 I2 R2" style="rounded=1;whiteSpace=wrap;html=1;fontSize=12;glass=0;strokeWidth=1;shadow=0;" parent="WIyWlLk6GJQsqaUBKTNV-1" vertex="1">
          <mxGeometry x="544.37" y="140" width="120" height="40" as="geometry" />
        </mxCell>
        <mxCell id="ESIJSZC5jFDNYzqoe9x8-0" value="option --excludeIndex &lt;br&gt;active?" style="rhombus;whiteSpace=wrap;html=1;shadow=0;fontFamily=Helvetica;fontSize=12;align=center;strokeWidth=1;spacing=6;spacingTop=-4;" vertex="1" parent="WIyWlLk6GJQsqaUBKTNV-1">
          <mxGeometry x="164.37" y="310" width="220" height="80" as="geometry" />
        </mxCell>
        <mxCell id="ESIJSZC5jFDNYzqoe9x8-1" value="Yes" style="edgeStyle=orthogonalEdgeStyle;rounded=0;html=1;jettySize=auto;orthogonalLoop=1;fontSize=11;endArrow=block;endFill=0;endSize=8;strokeWidth=1;shadow=0;labelBackgroundColor=none;exitX=1;exitY=0.5;exitDx=0;exitDy=0;entryX=0;entryY=0.5;entryDx=0;entryDy=0;" edge="1" parent="WIyWlLk6GJQsqaUBKTNV-1" source="ESIJSZC5jFDNYzqoe9x8-0" target="ESIJSZC5jFDNYzqoe9x8-6">
          <mxGeometry x="0.147" y="10" relative="1" as="geometry">
            <mxPoint as="offset" />
            <mxPoint x="414.37" y="349.5" as="sourcePoint" />
            <mxPoint x="524.37" y="350" as="targetPoint" />
          </mxGeometry>
        </mxCell>
        <mxCell id="ESIJSZC5jFDNYzqoe9x8-3" value="Yes" style="edgeStyle=orthogonalEdgeStyle;rounded=0;html=1;jettySize=auto;orthogonalLoop=1;fontSize=11;endArrow=block;endFill=0;endSize=8;strokeWidth=1;shadow=0;labelBackgroundColor=none;entryX=0;entryY=0.5;entryDx=0;entryDy=0;" edge="1" parent="WIyWlLk6GJQsqaUBKTNV-1" source="ESIJSZC5jFDNYzqoe9x8-4" target="ESIJSZC5jFDNYzqoe9x8-5">
          <mxGeometry y="10" relative="1" as="geometry">
            <mxPoint as="offset" />
            <mxPoint x="504.37" y="630" as="targetPoint" />
          </mxGeometry>
        </mxCell>
        <mxCell id="ESIJSZC5jFDNYzqoe9x8-4" value="There are also I1 and/or I2 files" style="rhombus;whiteSpace=wrap;html=1;shadow=0;fontFamily=Helvetica;fontSize=12;align=center;strokeWidth=1;spacing=6;spacingTop=-4;" vertex="1" parent="WIyWlLk6GJQsqaUBKTNV-1">
          <mxGeometry x="164.37" y="490" width="220" height="80" as="geometry" />
        </mxCell>
        <mxCell id="ESIJSZC5jFDNYzqoe9x8-5" value="ValueError" style="rounded=1;whiteSpace=wrap;html=1;fontSize=12;glass=0;strokeWidth=1;shadow=0;" vertex="1" parent="WIyWlLk6GJQsqaUBKTNV-1">
          <mxGeometry x="544.37" y="510" width="120" height="40" as="geometry" />
        </mxCell>
        <mxCell id="ESIJSZC5jFDNYzqoe9x8-6" value="Write cycles&lt;br&gt;R1 I1 I2 R2" style="rounded=1;whiteSpace=wrap;html=1;fontSize=12;glass=0;strokeWidth=1;shadow=0;" vertex="1" parent="WIyWlLk6GJQsqaUBKTNV-1">
          <mxGeometry x="544.37" y="330" width="120" height="40" as="geometry" />
        </mxCell>
        <mxCell id="ESIJSZC5jFDNYzqoe9x8-9" value="No" style="rounded=0;html=1;jettySize=auto;orthogonalLoop=1;fontSize=11;endArrow=block;endFill=0;endSize=8;strokeWidth=1;shadow=0;labelBackgroundColor=none;edgeStyle=orthogonalEdgeStyle;" edge="1" parent="WIyWlLk6GJQsqaUBKTNV-1">
          <mxGeometry x="-0.2001" y="20" relative="1" as="geometry">
            <mxPoint y="1" as="offset" />
            <mxPoint x="274.37" y="490" as="targetPoint" />
            <mxPoint x="273.88" y="390" as="sourcePoint" />
          </mxGeometry>
        </mxCell>
        <mxCell id="ESIJSZC5jFDNYzqoe9x8-10" value="option --excludeUMI&lt;br&gt;active?" style="rhombus;whiteSpace=wrap;html=1;shadow=0;fontFamily=Helvetica;fontSize=12;align=center;strokeWidth=1;spacing=6;spacingTop=-4;" vertex="1" parent="WIyWlLk6GJQsqaUBKTNV-1">
          <mxGeometry x="164" y="810" width="220" height="80" as="geometry" />
        </mxCell>
        <mxCell id="ESIJSZC5jFDNYzqoe9x8-11" value="Yes" style="edgeStyle=orthogonalEdgeStyle;rounded=0;html=1;jettySize=auto;orthogonalLoop=1;fontSize=11;endArrow=block;endFill=0;endSize=8;strokeWidth=1;shadow=0;labelBackgroundColor=none;exitX=1;exitY=0.5;exitDx=0;exitDy=0;entryX=0;entryY=0.5;entryDx=0;entryDy=0;" edge="1" parent="WIyWlLk6GJQsqaUBKTNV-1" source="ESIJSZC5jFDNYzqoe9x8-10">
          <mxGeometry x="0.147" y="10" relative="1" as="geometry">
            <mxPoint as="offset" />
            <mxPoint x="414" y="849.5" as="sourcePoint" />
            <mxPoint x="544" y="850" as="targetPoint" />
          </mxGeometry>
        </mxCell>
        <mxCell id="ESIJSZC5jFDNYzqoe9x8-12" value="Yes" style="edgeStyle=orthogonalEdgeStyle;rounded=0;html=1;jettySize=auto;orthogonalLoop=1;fontSize=11;endArrow=block;endFill=0;endSize=8;strokeWidth=1;shadow=0;labelBackgroundColor=none;entryX=0;entryY=0.5;entryDx=0;entryDy=0;" edge="1" parent="WIyWlLk6GJQsqaUBKTNV-1" source="ESIJSZC5jFDNYzqoe9x8-13" target="ESIJSZC5jFDNYzqoe9x8-14">
          <mxGeometry y="10" relative="1" as="geometry">
            <mxPoint as="offset" />
            <mxPoint x="504" y="1100" as="targetPoint" />
          </mxGeometry>
        </mxCell>
        <mxCell id="ESIJSZC5jFDNYzqoe9x8-13" value="There are also I1 and/or I2 files" style="rhombus;whiteSpace=wrap;html=1;shadow=0;fontFamily=Helvetica;fontSize=12;align=center;strokeWidth=1;spacing=6;spacingTop=-4;" vertex="1" parent="WIyWlLk6GJQsqaUBKTNV-1">
          <mxGeometry x="164" y="960" width="220" height="80" as="geometry" />
        </mxCell>
        <mxCell id="ESIJSZC5jFDNYzqoe9x8-14" value="ValueError" style="rounded=1;whiteSpace=wrap;html=1;fontSize=12;glass=0;strokeWidth=1;shadow=0;" vertex="1" parent="WIyWlLk6GJQsqaUBKTNV-1">
          <mxGeometry x="544" y="980" width="120" height="40" as="geometry" />
        </mxCell>
        <mxCell id="ESIJSZC5jFDNYzqoe9x8-15" value="No" style="rounded=0;html=1;jettySize=auto;orthogonalLoop=1;fontSize=11;endArrow=block;endFill=0;endSize=8;strokeWidth=1;shadow=0;labelBackgroundColor=none;edgeStyle=orthogonalEdgeStyle;" edge="1" parent="WIyWlLk6GJQsqaUBKTNV-1">
          <mxGeometry x="-0.2001" y="20" relative="1" as="geometry">
            <mxPoint y="1" as="offset" />
            <mxPoint x="274" y="960" as="targetPoint" />
            <mxPoint x="274" y="890" as="sourcePoint" />
          </mxGeometry>
        </mxCell>
        <mxCell id="ESIJSZC5jFDNYzqoe9x8-16" value="No" style="rounded=0;html=1;jettySize=auto;orthogonalLoop=1;fontSize=11;endArrow=block;endFill=0;endSize=8;strokeWidth=1;shadow=0;labelBackgroundColor=none;edgeStyle=orthogonalEdgeStyle;exitX=0.5;exitY=1;exitDx=0;exitDy=0;" edge="1" parent="WIyWlLk6GJQsqaUBKTNV-1" source="ESIJSZC5jFDNYzqoe9x8-4">
          <mxGeometry x="-0.2001" y="20" relative="1" as="geometry">
            <mxPoint y="1" as="offset" />
            <mxPoint x="274" y="650" as="targetPoint" />
            <mxPoint x="354.37" y="590" as="sourcePoint" />
          </mxGeometry>
        </mxCell>
        <mxCell id="ESIJSZC5jFDNYzqoe9x8-17" value="Write cycles&lt;br&gt;R1 I1 I2 R2" style="rounded=1;whiteSpace=wrap;html=1;fontSize=12;glass=0;strokeWidth=1;shadow=0;" vertex="1" parent="WIyWlLk6GJQsqaUBKTNV-1">
          <mxGeometry x="544" y="830" width="120" height="40" as="geometry" />
        </mxCell>
        <mxCell id="ESIJSZC5jFDNYzqoe9x8-18" value="No" style="rounded=0;html=1;jettySize=auto;orthogonalLoop=1;fontSize=11;endArrow=block;endFill=0;endSize=8;strokeWidth=1;shadow=0;labelBackgroundColor=none;edgeStyle=orthogonalEdgeStyle;exitX=0.5;exitY=1;exitDx=0;exitDy=0;entryX=0.5;entryY=0;entryDx=0;entryDy=0;" edge="1" parent="WIyWlLk6GJQsqaUBKTNV-1" source="ESIJSZC5jFDNYzqoe9x8-13" target="ESIJSZC5jFDNYzqoe9x8-21">
          <mxGeometry x="-0.2001" y="20" relative="1" as="geometry">
            <mxPoint y="1" as="offset" />
            <mxPoint x="274.37" y="1050" as="targetPoint" />
            <mxPoint x="274.37" y="950" as="sourcePoint" />
            <Array as="points">
              <mxPoint x="274" y="1050" />
            </Array>
          </mxGeometry>
        </mxCell>
        <mxCell id="ESIJSZC5jFDNYzqoe9x8-21" value="Write R1 and R2 cycles and use INDEX and UMI to write indexes" style="rounded=1;whiteSpace=wrap;html=1;fontSize=12;glass=0;strokeWidth=1;shadow=0;" vertex="1" parent="WIyWlLk6GJQsqaUBKTNV-1">
          <mxGeometry x="169.38" y="1099" width="210" height="70" as="geometry" />
        </mxCell>
        <mxCell id="ESIJSZC5jFDNYzqoe9x8-22" value="&lt;div style=&quot;&quot;&gt;&lt;span style=&quot;background-color: initial;&quot;&gt;R1 have UMI in sequence description?&lt;/span&gt;&lt;/div&gt;" style="rhombus;whiteSpace=wrap;html=1;shadow=0;fontFamily=Helvetica;fontSize=12;align=center;strokeWidth=1;spacing=13;spacingTop=-4;spacingLeft=11;spacingRight=9;" vertex="1" parent="WIyWlLk6GJQsqaUBKTNV-1">
          <mxGeometry x="160" y="650" width="228.75" height="100" as="geometry" />
        </mxCell>
        <mxCell id="ESIJSZC5jFDNYzqoe9x8-23" value="No" style="edgeStyle=orthogonalEdgeStyle;rounded=0;html=1;jettySize=auto;orthogonalLoop=1;fontSize=11;endArrow=block;endFill=0;endSize=8;strokeWidth=1;shadow=0;labelBackgroundColor=none;" edge="1" source="ESIJSZC5jFDNYzqoe9x8-22" target="ESIJSZC5jFDNYzqoe9x8-24" parent="WIyWlLk6GJQsqaUBKTNV-1">
          <mxGeometry y="10" relative="1" as="geometry">
            <mxPoint as="offset" />
          </mxGeometry>
        </mxCell>
        <mxCell id="ESIJSZC5jFDNYzqoe9x8-24" value="Write cycles&lt;br&gt;R1 I1 I2 R2" style="rounded=1;whiteSpace=wrap;html=1;fontSize=12;glass=0;strokeWidth=1;shadow=0;" vertex="1" parent="WIyWlLk6GJQsqaUBKTNV-1">
          <mxGeometry x="544.37" y="680" width="120" height="40" as="geometry" />
        </mxCell>
        <mxCell id="ESIJSZC5jFDNYzqoe9x8-25" value="No" style="rounded=0;html=1;jettySize=auto;orthogonalLoop=1;fontSize=11;endArrow=block;endFill=0;endSize=8;strokeWidth=1;shadow=0;labelBackgroundColor=none;edgeStyle=orthogonalEdgeStyle;exitX=0.5;exitY=1;exitDx=0;exitDy=0;entryX=0.5;entryY=0;entryDx=0;entryDy=0;" edge="1" parent="WIyWlLk6GJQsqaUBKTNV-1" source="ESIJSZC5jFDNYzqoe9x8-22" target="ESIJSZC5jFDNYzqoe9x8-10">
          <mxGeometry x="-0.2001" y="20" relative="1" as="geometry">
            <mxPoint y="1" as="offset" />
            <mxPoint x="110" y="810" as="targetPoint" />
            <mxPoint x="110" y="730" as="sourcePoint" />
          </mxGeometry>
        </mxCell>
      </root>
    </mxGraphModel>
  </diagram>
</mxfile>
